<svg version="1.2" xmlns="http://www.w3.org/2000/svg" viewBox="0 0 1627 341" width="1627" height="341">
	<title>img_bluegreen-color-logo-svg</title>
	<style>
		.s0 { fill: #00b9e3 } 
		.s1 { fill: #a5cf4d } 
		.s2 { fill: #fdb933 } 
		.s3 { fill: #77787b } 
	</style>
	<g id="#00b9e3ff">
		<path id="Layer" class="s0" d="m618.1 0.6c15-1.9 30.6 1.6 43 10c14.6 9.7 24.8 25.7 27.1 43c2.5 16.5-2 33.8-12.1 46.9c-11 14.5-28.5 23.8-46.7 24.5c-19.1 1.1-38.4-7.4-50.7-22c-12.4-14.4-17.5-34.7-13.5-53.3c5-25.3 27.3-46 52.9-49.1z" />
	</g>
	<g id="#a5cf4dff">
		<path id="Layer" class="s1" d="m781.6 1.4c15.1-3.1 31.3-0.5 44.5 7.4c15.6 9.2 26.9 25.5 29.8 43.4c2.7 15.9-1 32.8-10.3 46c-9.8 14.2-25.7 24.1-42.9 26.3c-15.7 2.2-32.2-1.9-45.1-11.2c-14.5-10.4-24.2-27.2-25.6-45c-1.5-15.5 3.1-31.4 12.6-43.7c9-11.8 22.4-20.3 37-23.2z" />
	</g>
	<g id="#fdb933ff">
		<path id="Layer" class="s2" d="m949.1 1.3c14.8-2.9 30.5-0.5 43.5 7.1c16.1 9.1 27.6 25.6 30.6 43.8c2.7 16.2-1.2 33.4-10.8 46.7c-9.8 13.8-25.4 23.3-42.2 25.6c-15.7 2.2-32.2-1.8-45.1-11.1c-13.7-9.8-23.2-25.4-25.5-42.1c-2.2-15.4 1.6-31.5 10.5-44.2c9-13.2 23.3-22.7 39-25.8z" />
	</g>
	<g id="#77787bff">
		<path id="Layer" fill-rule="evenodd" class="s3" d="m0 181.8c9.1-0.1 18.2-0.1 27.3-0.1c0 16 0.1 32.1 0 48.1c4.4-5.3 9.5-10.3 16-12.7c15.4-6 34-1 44.9 11.2c8.9 9.8 12.6 23.3 12.4 36.2c0.1 13.3-3.9 27.1-13.4 36.7c-10.4 10.9-27 15.2-41.5 11.1c-7.3-2-13.3-7-18.4-12.5q0.1 6.1 0 12.3c-9.1-0.1-18.2 0-27.3-0.1zm43.7 56.9c-20.4 6.3-22.5 38.5-4.7 49c8.4 5.1 20.1 3.6 26.9-3.5c9-9.2 9.8-24.7 3.4-35.5c-5-8.6-16.1-13.2-25.6-10z" />
		<path id="Layer" class="s3" d="m114.7 312.1c0-43.5 0-86.9 0-130.4q13.6 0 27.1 0q0 65.2 0 130.4q-13.5 0-27.1 0z" />
		<path id="Layer" class="s3" d="m1283.7 185.3q5.5 0 11 0q0 6 0 12q-5.5 0-11 0q0-6 0-12z" />
		<path id="Layer" class="s3" d="m1224 191.9q4.4 0 8.8 0q0 14.5 0 29.1q16 0 31.9 0q0 4 0 8.1q-15.9 0-31.9 0c0 19.5 0 39.1 0 58.6c-0.2 6 2 12.7 7.7 15.4c7.5 3.8 16.5 2.3 23.9-0.9q-0.1 4.1 0 8.3c-9.6 4-21.3 4.7-30.4-0.9c-7-4.3-10.2-12.7-10-20.5c-0.1-20 0-40-0.1-60q-6.6 0-13.1 0q0-4.1 0-8.1q6.6 0 13.1 0q0-14.6 0.1-29.1z" />
		<path id="Layer" fill-rule="evenodd" class="s3" d="m1602.8 206.9c10.8-3.2 23.5 5.7 23.1 17.2c1.3 10.2-7.5 19.8-17.6 19.9c-9.7 0.7-18.9-7.3-19.5-17c-1.1-8.9 5.2-18 14-20.1zm-1.3 3.4c-7.4 2.9-11.6 11.8-9.3 19.4c2 8 10.8 13.2 18.7 11.2c8.6-1.8 14.3-11.2 12-19.6c-1.8-9.2-12.8-14.8-21.4-11z" />
		<path id="Layer" class="s3" d="m523.2 217.5c4.7-2.5 10.1-2.9 15.4-3.1q0 14.2 0 28.4c-7.7 0.2-16 1.7-21.6 7.4c-6.9 6.7-8.8 16.7-8.9 25.8c-0.1 12.1 0 24 0 36.1q-13.6 0-27.2 0q0-47.9 0-95.7q13.6-0.1 27.2 0c0 6.3 0 12.6-0.1 18.9c3.3-7.1 7.9-14.3 15.2-17.8z" />
		<path id="Layer" fill-rule="evenodd" class="s3" d="m273.4 230.5c16-19.3 48.5-21.5 66.7-4.3c12.6 12.1 16.3 30.7 14.8 47.5c-22.2 0.1-44.5 0-66.7 0.1c1.8 6.8 5.7 13.5 12.5 16.3c11.7 5.1 25.4 1.1 34.2-7.6q7.8 6.9 15.6 13.9c-18.2 23.2-57.3 23.7-76.9 2.1c-16.6-18.5-16.2-49.3-0.2-68zm21.6 11.4c-4.1 3.9-5.8 9.4-7.2 14.7q20.6 0.1 41.1 0c-1.1-4.8-2.4-9.8-5.7-13.6c-6.7-8.4-20.8-8.8-28.2-1.1z" />
		<path id="Layer" fill-rule="evenodd" class="s3" d="m370.6 235.2c8.8-16.1 29-23.8 46.5-19.5c8.2 1.6 15 7 20.8 12.8q0-6.1 0-12.1q13.6-0.1 27.2 0c0 25.1 0.1 50.3 0 75.5c-0.2 13.3-3 28.1-13.4 37.4c-10.7 9.6-25.8 11.3-39.6 11.7h-1c-14.4-0.3-28.9-3.4-41.8-10c3.1-6.8 6.3-13.6 9.3-20.4c8.8 4.7 18.4 8.1 28.5 8.5c8.9 0.6 19.2-0.5 25.5-7.5c5.5-6.2 5.7-14.9 5.8-22.7c-4.9 5.2-10.2 10.4-17.1 12.9c-16.3 5.9-36.3 0.8-47.2-13c-11.6-15-12.5-37.1-3.5-53.6zm37.2 2.9c-13.2 3-19.8 19.1-14 31c5.3 11.8 21.1 15.5 32.2 10.1c10.9-4.8 15.2-18.9 10.3-29.3c-4.7-10.6-17.9-15-28.5-11.8z" />
		<path id="Layer" fill-rule="evenodd" class="s3" d="m553.9 229.4c16-18.1 47.2-20.1 65.2-3.7c13 12 16.9 30.9 15.4 48c-22.3 0.1-44.5-0.1-66.8 0.1c1.9 6.9 6 13.8 13 16.5c11.6 4.8 25.1 0.8 33.8-7.8c5.2 4.6 10.4 9.2 15.6 13.9c-18.4 23.4-58 23.7-77.4 1.5c-16.5-18.9-15.6-50 1.2-68.5zm20.2 13c-3.8 3.9-5.4 9.2-6.7 14.2q20.5 0.1 41.1 0c-1.2-5-2.6-10.2-6.2-14.1c-7-8.1-21.1-8.1-28.2-0.1z" />
		<path id="Layer" fill-rule="evenodd" class="s3" d="m656.4 229.3c15.9-17.8 46.3-19.9 64.4-4.2c13.6 11.9 17.6 31.3 16.1 48.6c-22.3 0.1-44.5-0.1-66.8 0.1c1.9 6.9 5.9 13.7 12.9 16.5c11.6 4.8 25.1 0.8 33.9-7.8c5.2 4.6 10.4 9.2 15.6 13.9c-18.4 23.3-57.8 23.6-77.3 1.7c-16.6-19-15.7-50.3 1.2-68.8zm20.1 13.1c-3.8 3.8-5.4 9.1-6.7 14.2q20.5 0.1 41 0c-1.1-4.9-2.4-10.1-5.9-13.9c-7-8.3-21.2-8.4-28.4-0.3z" />
		<path id="Layer" class="s3" d="m771.4 229.7c5.2-6.4 11.6-12.4 19.9-14.2c11-2.5 23.9-0.2 31.8 8.4c6.6 7 8.8 16.9 8.8 26.2c0 20.7 0 41.3 0 62q-13.6 0-27.2 0q-0.1-26.8 0-53.4c0-5.9-1.3-12.4-6.1-16.2c-5.3-4.1-13.2-4.2-19.1-1.1c-6.1 3.4-8.2 10.7-8.1 17.2q0.1 26.7 0 53.5q-13.6 0-27.2 0q0-47.9 0-95.7q13.6-0.1 27.2 0c0 4.4 0.1 8.8 0 13.3z" />
		<path id="Layer" fill-rule="evenodd" class="s3" d="m1600.5 215.5c4.6 0.5 10.3-1.3 14.2 2.1c3 3.4 0.6 7.9-2.6 10.1c1.6 2.1 3.1 4.4 4.7 6.5q-2.4-0.2-4.7-0.2c-1.4-2.1-2.8-4.2-4.2-6.3c-0.9 0-2.9 0-3.8 0q-0.1 3.2 0 6.4c-0.9 0-2.7 0-3.6 0q0-9.3 0-18.6zm3.6 3.2q0 3.1 0 6.2c2.7-0.6 6.8 0.8 8.2-2.4c0.6-4.7-5.3-3.6-8.2-3.8z" />
		<path id="Layer" class="s3" d="m159.2 216.4q13.7-0.1 27.3 0c0 18 0 36 0 54c0 6.2 1.9 13.3 7.6 16.6c5.6 3 13 2.8 18.4-0.5c5.3-3.5 7.2-10.2 7.2-16.2c0.1-18 0-36 0-53.9q13.6-0.1 27.3 0q0 47.8 0 95.7q-13.7 0-27.3 0c0-4.5 0-8.9 0-13.4c-5.1 6.3-11.4 12.2-19.6 14.1c-10.8 2.5-23.4 0.5-31.4-7.6c-6.9-6.9-9.3-16.8-9.4-26.2c-0.1-20.9 0-41.8-0.1-62.6z" />
		<path id="Layer" fill-rule="evenodd" class="s3" d="m941.5 227.4c14.2-6.8 30.6-10.1 46-6.2c8.3 2.1 15.9 7.2 20 14.8c3.4 6 4.4 13 4.4 19.8c0 18.7 0 37.5 0 56.3q-4.3 0-8.6 0c-0.1-5-0.1-10 0-15c-13.4 18.9-43 22.8-60.9 8.2c-11.7-9.5-12.1-29.2-1.2-39.4c8.5-7.9 20.5-10.2 31.8-10.3c10.2-0.2 20.4 1.3 30.4 3.9c-0.1-6.8-0.4-14-4.2-19.8c-4.2-7.1-12.4-10.8-20.3-11.5c-11.8-1.4-23.7 1.7-34.2 6.9q-1.6-3.9-3.2-7.7zm5.9 44.7c-6.5 7.1-6.3 19.3 0.7 26c6.7 6.8 17 8.6 26.2 7.4c10.6-1.2 21.3-6.6 26.4-16.3c3.6-6.6 2.6-14.4 2.7-21.6c-11.8-2.9-24.1-4.8-36.3-3.8c-7.1 0.7-14.6 2.9-19.7 8.3z" />
		<path id="Layer" class="s3" d="m1053.9 222.7c13.4-5.9 29.6-5 42.1 2.7c4.7 2.7 8.6 6.5 12.5 10.2q-3.2 3.3-6.3 6.5c-5.9-5.8-12.6-11.4-20.8-13.7c-13-3.7-27.9 0.8-36.6 11.2c-13.3 15.1-12.8 40.1 1.1 54.6c8.7 9.5 22.7 13.8 35.2 10.6c8.7-2.1 16-7.7 22-14.1q3 2.7 6.1 5.4c-9.6 11.5-24.1 19.2-39.3 18c-21.6-0.5-40.7-18.3-43.7-39.5c-3.7-20.9 8-43.6 27.7-51.9z" />
		<path id="Layer" fill-rule="evenodd" class="s3" d="m1125.8 227.4c15.8-7.5 35-11 51.7-4.2c11.4 4.6 18.3 16.6 18.6 28.6c0.2 20.1 0 40.2 0.1 60.2q-4.4 0-8.7 0.1c0-5 0-9.9 0.1-14.9c-13.8 19.3-44.7 22.9-62.2 6.9c-12.4-11.4-9.5-34.2 5.4-42.1c17.3-9.7 38.3-6.8 56.8-2.6c0-6.6-0.3-13.5-3.8-19.3c-3.6-6.3-10.3-10.1-17.3-11.4c-12.8-2.5-26 0.6-37.5 6.4q-1.6-3.9-3.2-7.7zm6.1 44.5c-6.8 7.1-6.5 19.7 0.7 26.4c6.6 6.4 16.3 8.3 25.2 7.3c10.9-1 22.1-6.6 27.3-16.6c3.5-6.6 2.4-14.3 2.6-21.4c-11.7-2.9-23.7-4.7-35.7-3.9c-7.3 0.6-14.9 2.8-20.1 8.2z" />
		<path id="Layer" fill-rule="evenodd" class="s3" d="m1347.5 220.6c14.3-4 30.5-1 42 8.4c13.4 10.7 19.7 29 16.7 45.7c-2.7 16.9-15.2 32.1-31.8 37.2c-18.3 6.1-40.2-0.4-51.6-16.2c-14-18.3-12.2-46.5 4-62.8c5.7-5.9 12.9-10.1 20.7-12.3zm4.4 7.4c-9.7 2.1-18.2 8.4-23.2 16.8c-10.1 16.5-6.9 40.3 8.3 52.6c13.2 11.5 34.8 11.2 47.6-0.8c16.4-14.6 16.9-42.8 1.5-58.3c-8.6-9.1-22-13.1-34.2-10.3z" />
		<path id="Layer" class="s3" d="m1452.9 220.4c12.6-3.4 27.6-1.5 37.3 7.7c7.5 7.1 10.8 17.6 10.8 27.7c0.1 18.7 0 37.5 0 56.3q-4.4 0-8.7 0c0-15.9 0-31.7 0-47.6c0.3-9.8-0.3-20.7-7.1-28.5c-12.7-14.5-39.1-10.9-48.5 5.6c-3.5 5.6-4.9 12.1-4.8 18.6c-0.1 17.3-0.1 34.6-0.1 51.9q-4.4 0-8.8 0q0-45.6 0-91.1q4.4 0 8.8 0c0 5.5 0.1 11.1 0 16.7c4.7-8 12-14.8 21.1-17.3z" />
		<path id="Layer" class="s3" d="m1522.3 232c4.7-7.7 13.6-11.8 22.4-12.6c12.9-1.1 25.7 3 36.6 9.8q-2.4 3.6-4.7 7.4c-7.9-4.9-16.8-8.6-26.2-9c-6.8-0.4-14.2 1.1-19 6.4c-4.4 4.8-5.1 13.2 0 17.8c13.1 10.6 32.3 8.8 45.1 20c8 6.8 8.3 19.2 3.4 27.8c-5 8.9-15.3 13.5-25.1 14.1c-14.5 0.8-29-4.3-40.5-13q2.6-3.6 5.2-7.1c11.5 8.6 26.5 14.4 40.9 10.8c7.6-1.9 14.3-8.6 13.7-16.8c0.1-7.1-6.4-11.7-12.4-14c-12-5-25.9-6-36.2-14.4c-8.1-6.4-8.4-18.9-3.2-27.2z" />
		<path id="Layer" class="s3" d="m842.8 221q5.2 0 10.3 0q17.2 40.5 34.4 81c11.6-27 23.2-54 34.8-81q4.9 0 9.9 0q-20.4 45.9-40.9 91.8q-3.8 0-7.6 0q-20.4-45.9-40.9-91.8z" />
		<path id="Layer" class="s3" d="m1284.8 221q4.4 0 8.8 0q0 45.5 0 91.1q-4.4 0-8.8 0q0-45.6 0-91.1z" />
	</g>
</svg>