<?xml version="1.0" encoding="utf-8"?>
<!-- Generator: Adobe Illustrator 18.0.0, SVG Export Plug-In . SVG Version: 6.00 Build 0)  -->
<!DOCTYPE svg PUBLIC "-//W3C//DTD SVG 1.1//EN" "http://www.w3.org/Graphics/SVG/1.1/DTD/svg11.dtd">
<svg version="1.1" id="Layer_1" xmlns="http://www.w3.org/2000/svg" xmlns:xlink="http://www.w3.org/1999/xlink" x="0px" y="0px"
	 viewBox="0 0 366.7 172.1" enable-background="new 0 0 366.7 172.1" xml:space="preserve">
<g>
	<path fill="#AAAD00" d="M340.2,154.2l0-21.7l-43.9-10.3L325,93c8.3-10.4,14.3-22.3,14.1-39.4c-2.1-28.3-18.4-30.4-31-28.3
		c-17.1,5.7-29.6,19.1-30.9,37l16.8-0.8c0.9-8.9,6.5-15.8,14.3-17.6c7.3-1.7,13.8,3,13.9,13.3c0.1,8.7-5.1,15.9-9.5,21.5l-36.1,36.1
		v16.9L340.2,154.2z M351.7,0v172.1l-85.6-33V33.7L351.7,0z"/>
	<path fill="#FFFFFF" d="M340.2,132.6l0,21.7l-63.4-22.6v-16.9l36.1-36.1c4.3-5.6,9.6-12.8,9.5-21.5c-0.1-10.2-6.6-15-13.9-13.3
		c-7.9,1.8-13.4,8.7-14.3,17.6l-16.8,0.8c1.3-17.9,13.8-31.3,30.9-37c12.6-2.1,28.9,0.1,31,28.3c0.2,17.2-5.8,29-14.1,39.4
		l-28.8,29.2L340.2,132.6z"/>
	<polygon fill="#493728" points="253.5,98.5 253.5,109.3 205.3,109.3 205.3,33.8 253.5,33.8 253.5,44.6 216.7,44.6 216.7,66.1 
		248.1,66.1 248.1,76.3 216.7,76.3 216.7,98.5 	"/>
	<polygon fill="#493728" points="244.5,124.3 250.1,133 250.1,124.3 252.9,124.3 252.9,138.5 250.4,138.5 244.8,129.8 244.8,138.5 
		242.1,138.5 242.1,124.3 	"/>
	<path fill="#493728" d="M226.4,127.4c-0.5,0.6-0.7,1.3-0.7,4c0,2.7,0.1,3.4,0.7,4c0.4,0.4,1,0.7,1.8,0.7c0.8,0,1.4-0.3,1.8-0.7
		c0.5-0.6,0.7-1.3,0.7-4c0-2.7-0.2-3.4-0.7-4c-0.4-0.4-1-0.7-1.8-0.7C227.5,126.7,226.8,127,226.4,127.4 M224.4,125.7
		c1-1,2.2-1.6,3.8-1.6s2.8,0.6,3.8,1.6c1.4,1.4,1.4,3.2,1.4,5.7c0,2.4,0,4.2-1.4,5.7c-1,1-2.2,1.6-3.8,1.6s-2.8-0.5-3.8-1.6
		c-1.4-1.4-1.4-3.2-1.4-5.7C223,128.9,222.9,127.2,224.4,125.7"/>
	<polygon fill="#493728" points="212.1,126.8 212.1,138.5 209.3,138.5 209.3,126.8 205.6,126.8 205.6,124.3 215.8,124.3 
		215.8,126.8 	"/>
	<polygon fill="#493728" points="200.3,136 200.3,138.5 191,138.5 191,124.3 193.8,124.3 193.8,136 	"/>
	<polygon fill="#493728" points="192.6,33.8 192.6,109.3 181.1,109.3 181.1,62.2 180.9,62.2 165.1,98.5 155.5,98.5 139.8,62.2 
		139.5,62.2 139.5,109.3 128.1,109.3 128.1,33.8 138.9,33.8 160.5,83 181.7,33.8 	"/>
	<rect x="179.2" y="124.3" fill="#493728" width="2.8" height="14.2"/>
	<polygon fill="#493728" points="167.3,130.1 167.3,124.3 170.1,124.3 170.1,138.5 167.3,138.5 167.3,132.6 162.5,132.6 
		162.5,138.5 159.8,138.5 159.8,124.3 162.5,124.3 162.5,130.1 	"/>
	<polygon fill="#493728" points="137.6,132.7 137.6,138.5 134.9,138.5 134.9,132.7 130.6,124.3 133.6,124.3 136.3,130 138.9,124.3 
		141.9,124.3 	"/>
	<path fill="#493728" d="M106,71.6c0-15.5-0.8-17.6-3.8-21.4c-2.3-3-6.3-5.5-11.7-5.5c-5.4,0-9.3,2.5-11.7,5.5
		c-3,3.8-3.8,5.9-3.8,21.4C75,87,75.8,89.2,78.8,93c2.3,3,6.3,5.5,11.7,5.5c5.4,0,9.3-2.5,11.7-5.5C105.1,89.2,106,87,106,71.6
		 M114.1,46.8c2.4,4.4,3.3,6.7,3.3,24.8c0,18.1-0.9,20.4-3.3,24.8c-3.6,6.6-11.8,13.6-23.7,13.6c-11.9,0-20-7-23.6-13.6
		c-2.4-4.5-3.3-6.7-3.3-24.8c0-18.1,0.8-20.4,3.3-24.8c3.6-6.6,11.8-13.6,23.6-13.6C102.3,33.2,110.5,40.2,114.1,46.8"/>
	<path fill="#493728" d="M121.6,131.2c0.9,0.4,1.9,1.3,1.9,3.2c0,2.6-1.8,4.1-4.3,4.1h-5.9v-14.2h5.7c2.8,0,4.4,1.6,4.4,4
		C123.4,129.9,122.3,130.9,121.6,131.2 M118.8,130.1c1.2,0,1.8-0.7,1.8-1.6c0-1-0.7-1.6-1.8-1.6h-2.7v3.3H118.8z M120.8,134.3
		c0-1-0.6-1.7-1.9-1.7h-2.9v3.5h2.9C120.2,136,120.8,135.2,120.8,134.3"/>
	<path fill="#493728" d="M89,130l1.7,0.2c1.3,0.2,2.1,0.5,2.7,1.1c0.8,0.7,1.1,1.8,1.1,3c0,2.7-2.3,4.3-5.3,4.3
		c-2.2,0-3.8-0.4-5.2-1.9l1.8-1.8c0.9,0.9,2.1,1.2,3.4,1.2c1.6,0,2.5-0.6,2.5-1.7c0-0.5-0.1-0.9-0.4-1.2c-0.3-0.3-0.6-0.4-1.3-0.5
		l-1.7-0.2c-1.2-0.2-2.1-0.6-2.8-1.2c-0.7-0.7-1-1.6-1-2.8c0-2.5,1.9-4.3,4.9-4.3c2,0,3.4,0.5,4.6,1.6l-1.8,1.7c-0.9-0.9-2-1-2.9-1
		c-1.5,0-2.2,0.8-2.2,1.8c0,0.4,0.1,0.7,0.4,1C88,129.7,88.4,129.9,89,130"/>
	<polygon fill="#493728" points="70.3,130.1 75.9,130.1 75.9,132.6 70.3,132.6 70.3,136 76.8,136 76.8,138.5 67.5,138.5 67.5,124.3 
		76.8,124.3 76.8,126.8 70.3,126.8 	"/>
	<polygon fill="#493728" points="55.8,126.8 55.8,138.5 53,138.5 53,126.8 49.3,126.8 49.3,124.3 59.5,124.3 59.5,126.8 	"/>
	<polygon fill="#493728" points="52.8,33.8 52.8,109.3 41.4,109.3 41.4,76.3 11.4,76.3 11.4,109.3 0,109.3 0,33.8 11.4,33.8 
		11.4,66.1 41.4,66.1 41.4,33.8 	"/>
	<rect x="38.5" y="124.3" fill="#493728" width="2.8" height="14.2"/>
	<path fill="#493728" d="M29.6,133.6c0,3-2.3,5-5.2,5s-5.2-2-5.2-5v-9.3H22v9.2c0,1.6,1,2.6,2.4,2.6c1.5,0,2.5-1,2.5-2.6v-9.2h2.7
		V133.6z"/>
	<path fill="#493728" d="M9.9,131.3c0.8,0.7,1.1,1.8,1.1,3c0,2.7-2.3,4.3-5.3,4.3c-2.1,0-3.8-0.4-5.2-1.9l1.8-1.8
		c0.9,0.9,2.1,1.2,3.4,1.2c1.6,0,2.5-0.6,2.5-1.7c0-0.5-0.1-0.9-0.4-1.2c-0.3-0.3-0.6-0.4-1.2-0.5l-1.7-0.2
		c-1.2-0.2-2.1-0.6-2.7-1.2c-0.7-0.7-1-1.6-1-2.8c0-2.5,1.9-4.3,4.9-4.3c1.9,0,3.4,0.5,4.6,1.6l-1.8,1.7c-0.9-0.9-2-1-2.9-1
		c-1.5,0-2.2,0.8-2.2,1.8c0,0.4,0.1,0.7,0.4,1c0.3,0.3,0.7,0.5,1.3,0.6l1.7,0.2C8.5,130.4,9.3,130.7,9.9,131.3"/>
	<path fill="#AAAD00" d="M361.9,164.5H361v1.6h0.9c0.5,0,0.9-0.4,0.9-0.8C362.8,164.9,362.4,164.5,361.9,164.5 M362.8,169l-1.1-2.1
		H361v2.1h-1v-5.4h2c1,0,1.7,0.8,1.7,1.6c0,0.8-0.5,1.3-1.1,1.5l1.2,2.3H362.8z M361.8,162.3c-2.2,0-4,1.8-4,4.1
		c0,2.3,1.8,4.1,4,4.1c2.2,0,4-1.8,4-4.1C365.7,164.1,364,162.3,361.8,162.3 M361.8,171.3c-2.7,0-5-2.2-5-5c0-2.7,2.2-5,5-5
		c2.8,0,5,2.2,5,5C366.7,169.1,364.5,171.3,361.8,171.3"/>
</g>
</svg>
