<?xml version="1.0" encoding="UTF-8" standalone="no"?>
<!-- Created with Inkscape (http://www.inkscape.org/) -->
<svg
   xmlns:svg="http://www.w3.org/2000/svg"
   xmlns="http://www.w3.org/2000/svg"
   version="1.0"
   width="200"
   height="75"
   id="svg2">
  <defs
     id="defs4" />
  <g
     transform="translate(-189.93493,-361.77683)"
     id="layer1">
    <g
       transform="matrix(2.5291404,0,0,2.5291404,191.79574,364.56804)"
       id="g2440">
      <path
         d="M 6.394,10.39 C 5.839,9.258 4.818,8.57 3.552,8.57 C 1.865,8.57 0.488,9.902 0.488,11.59 C 0.488,13.011 1.332,13.588 2.486,14.209 L 4.44,15.252 C 4.906,15.564 5.173,15.829 5.173,16.385 C 5.173,17.273 4.44,17.85 3.596,17.85 C 2.642,17.85 2.131,17.294 1.709,16.519 L 0,17.293 C 0.555,18.76 2.087,19.624 3.596,19.624 C 5.528,19.624 7.171,18.159 7.171,16.184 C 7.171,14.541 5.994,13.787 4.773,13.232 C 3.552,12.677 2.353,12.277 2.353,11.367 C 2.353,10.79 2.886,10.346 3.441,10.346 C 4.018,10.346 4.529,10.744 4.773,11.256 L 6.394,10.39"
         id="path2384" />
      <polyline
         id="polyline2386"
         points="9.653,8.881 7.389,8.881 12.672,19.624 15.736,12.677 18.777,19.624 24.061,8.881 21.797,8.881 18.777,15.495   15.736,8.303 12.672,15.495 9.653,8.881 " />
      <path
         d="M 26.499,2.73 C 25.744,2.73 25.122,3.352 25.122,4.129 C 25.122,4.884 25.744,5.483 26.499,5.483 C 27.254,5.483 27.875,4.884 27.875,4.129 C 27.875,3.353 27.254,2.73 26.499,2.73 M 27.498,8.881 L 25.5,8.881 L 25.5,19.271 L 27.498,19.271 L 27.498,8.881 z"
         id="path2388"
         style="fill-rule:evenodd" />
      <path
         d="M 35.664,10.39 C 35.109,9.258 34.087,8.57 32.822,8.57 C 31.135,8.57 29.758,9.902 29.758,11.59 C 29.758,13.011 30.602,13.588 31.756,14.209 L 33.71,15.252 C 34.176,15.564 34.443,15.829 34.443,16.385 C 34.443,17.273 33.71,17.85 32.866,17.85 C 31.912,17.85 31.401,17.294 30.979,16.519 L 29.27,17.294 C 29.825,18.761 31.357,19.625 32.866,19.625 C 34.798,19.625 36.441,18.16 36.441,16.185 C 36.441,14.542 35.264,13.788 34.043,13.233 C 32.822,12.678 31.623,12.278 31.623,11.368 C 31.623,10.791 32.156,10.347 32.711,10.347 C 33.288,10.347 33.799,10.745 34.043,11.257 L 35.664,10.39"
         id="path2390" />
      <path
         d="M 44.184,10.39 C 43.63,9.258 42.608,8.57 41.343,8.57 C 39.655,8.57 38.279,9.902 38.279,11.59 C 38.279,13.011 39.123,13.588 40.277,14.209 L 42.231,15.252 C 42.697,15.564 42.963,15.829 42.963,16.385 C 42.963,17.273 42.231,17.85 41.387,17.85 C 40.433,17.85 39.922,17.294 39.5,16.519 L 37.791,17.294 C 38.346,18.761 39.877,19.625 41.387,19.625 C 43.319,19.625 44.962,18.16 44.962,16.185 C 44.962,14.542 43.785,13.788 42.564,13.233 C 41.343,12.678 40.144,12.278 40.144,11.368 C 40.144,10.791 40.677,10.347 41.232,10.347 C 41.809,10.347 42.32,10.745 42.564,11.257 L 44.184,10.39"
         id="path2392" />
      <path
         d="M 51.666,10.479 C 53.642,10.479 55.218,12.122 55.218,14.098 C 55.218,16.051 53.642,17.716 51.666,17.716 C 49.69,17.716 48.114,16.051 48.114,14.098 C 48.114,12.121 49.69,10.479 51.666,10.479 M 51.666,8.569 C 48.558,8.569 46.116,10.967 46.116,14.097 C 46.116,17.227 48.558,19.623 51.666,19.623 C 54.774,19.623 57.216,17.227 57.216,14.097 C 57.216,10.967 54.774,8.569 51.666,8.569 z"
         id="path2394"
         style="fill-rule:evenodd" />
      <polyline
         id="polyline2396"
         points="61.318,10.744 63.271,10.744 63.271,8.881 61.318,8.881 61.318,4.906 59.319,4.906 59.319,8.881 58.231,8.881   58.231,10.744 59.319,10.744 59.319,19.271 61.318,19.271 61.318,10.744 " />
      <path
         d="M 65.804,12.898 C 66.048,11.411 67.203,10.301 68.757,10.301 C 70.355,10.301 71.377,11.344 71.621,12.898 L 65.804,12.898 M 73.619,14.407 L 73.619,14.097 C 73.619,11.011 72.065,8.569 68.757,8.569 C 65.405,8.569 63.695,10.967 63.695,14.163 C 63.695,17.227 65.627,19.624 68.801,19.624 C 70.822,19.624 72.642,18.581 73.619,16.783 L 71.932,15.828 C 71.177,17.071 70.355,17.849 68.823,17.849 C 66.914,17.849 65.715,16.184 65.693,14.408 L 73.619,14.408 L 73.619,14.407 z"
         id="path2398"
         style="fill-rule:evenodd" />
      <rect
         width="1.998"
         height="19.271"
         x="75.275002"
         y="0"
         id="rect2400" />
      <polyline
         id="polyline2402"
         points="48.186,6.518 49.473,7.538 51.716,5.407 53.98,7.538 55.29,6.518 51.716,3.299 48.186,6.518 "
         style="fill:#eb2127" />
      <polyline
         id="polyline2404"
         points="3.035,23.638 3.035,21.52 2.38,21.52 2.38,26.772 3.035,26.772 3.035,24.25 5.536,24.25   5.536,26.772 6.191,26.772 6.191,21.52 5.536,21.52 5.536,23.638 3.035,23.638 "
         style="fill:#ea2328" />
      <path
         d="M 10.26,24.014 C 10.88,24.014 11.374,24.53 11.374,25.15 C 11.374,25.763 10.88,26.285 10.26,26.285 C 9.639,26.285 9.145,25.764 9.145,25.15 C 9.145,24.529 9.639,24.014 10.26,24.014 M 10.26,23.414 C 9.284,23.414 8.518,24.166 8.518,25.149 C 8.518,26.131 9.284,26.884 10.26,26.884 C 11.235,26.884 12.001,26.131 12.001,25.149 C 12.001,24.166 11.235,23.414 10.26,23.414 z"
         id="path2406"
         style="fill:#ea2328;fill-rule:evenodd" />
      <polyline
         id="polyline2408"
         points="15.031,24.098 15.644,24.098 15.644,23.512 15.031,23.512 15.031,22.265 14.404,22.265   14.404,23.512 14.063,23.512 14.063,24.098 14.404,24.098 14.404,26.772 15.031,26.772 15.031,24.098 "
         style="fill:#ea2328" />
      <path
         d="M 18.138,24.773 C 18.215,24.305 18.577,23.958 19.065,23.958 C 19.567,23.958 19.887,24.285 19.964,24.773 L 18.138,24.773 M 20.591,25.246 L 20.591,25.149 C 20.591,24.18 20.103,23.414 19.065,23.414 C 18.013,23.414 17.476,24.166 17.476,25.17 C 17.476,26.132 18.083,26.885 19.079,26.885 C 19.713,26.885 20.284,26.557 20.591,25.991 L 20.061,25.692 C 19.824,26.082 19.567,26.326 19.086,26.326 C 18.487,26.326 18.11,25.805 18.103,25.246 L 20.591,25.246 L 20.591,25.246 z"
         id="path2410"
         style="fill:#ea2328;fill-rule:evenodd" />
      <rect
         width="0.62699997"
         height="6.0469999"
         x="22.896"
         y="20.726"
         id="rect2412"
         style="fill:#ea2328" />
      <path
         d="M 27.975,23.985 C 27.801,23.631 27.48,23.414 27.083,23.414 C 26.553,23.414 26.122,23.832 26.122,24.362 C 26.122,24.807 26.386,24.989 26.749,25.183 L 27.362,25.511 C 27.508,25.609 27.592,25.692 27.592,25.865 C 27.592,26.144 27.362,26.325 27.097,26.325 C 26.797,26.325 26.637,26.151 26.505,25.907 L 25.968,26.151 C 26.142,26.611 26.623,26.883 27.097,26.883 C 27.703,26.883 28.219,26.423 28.219,25.803 C 28.219,25.286 27.849,25.05 27.466,24.876 C 27.083,24.701 26.707,24.576 26.707,24.29 C 26.707,24.108 26.874,23.97 27.048,23.97 C 27.229,23.97 27.39,24.096 27.466,24.256 L 27.975,23.985"
         id="path2414"
         style="fill:#ea2328" />
      <path
         d="M 38.019,26.772 L 38.828,26.772 L 37.887,25.609 L 38.528,24.856 L 38.11,24.424 L 37.497,25.135 L 36.403,23.811 C 36.842,23.49 37.358,23.094 37.358,22.5 C 37.358,21.812 36.786,21.406 36.145,21.406 C 35.456,21.406 34.933,21.831 34.933,22.556 C 34.933,23.002 35.212,23.392 35.511,23.704 L 35.184,23.942 C 34.682,24.303 34.264,24.666 34.264,25.336 C 34.264,26.24 34.996,26.883 35.874,26.883 C 36.494,26.883 37.051,26.527 37.448,26.06 L 38.019,26.772 M 36.034,23.358 L 35.86,23.135 C 35.707,22.94 35.546,22.744 35.546,22.481 C 35.546,22.146 35.818,21.923 36.131,21.923 C 36.48,21.923 36.745,22.124 36.745,22.494 C 36.745,22.878 36.382,23.094 36.118,23.302 L 36.034,23.358 z M 35.895,24.181 L 37.058,25.603 C 36.731,25.93 36.341,26.3 35.853,26.3 C 35.351,26.3 34.877,25.832 34.877,25.33 C 34.877,24.828 35.47,24.474 35.832,24.223 L 35.895,24.181 z"
         id="path2416"
         style="fill:#ea2328;fill-rule:evenodd" />
      <path
         d="M 45.369,22.105 L 45.543,22.105 C 46.191,22.105 46.972,22.223 46.972,23.044 C 46.972,23.881 46.247,24.006 45.578,24.006 L 45.369,24.006 L 45.369,22.105 M 46.324,24.487 C 47.083,24.396 47.585,23.769 47.585,23.017 C 47.585,22.515 47.334,22.021 46.895,21.763 C 46.477,21.526 45.975,21.519 45.509,21.519 L 44.714,21.519 L 44.714,26.772 L 45.369,26.772 L 45.369,24.55 L 45.641,24.55 L 47.188,26.772 L 47.982,26.772 L 46.324,24.487 z"
         id="path2418"
         style="fill:#ea2328;fill-rule:evenodd" />
      <path
         d="M 50.582,24.773 C 50.658,24.305 51.02,23.958 51.508,23.958 C 52.01,23.958 52.33,24.285 52.407,24.773 L 50.582,24.773 M 53.034,25.246 L 53.034,25.149 C 53.034,24.18 52.546,23.414 51.508,23.414 C 50.456,23.414 49.92,24.166 49.92,25.17 C 49.92,26.132 50.526,26.885 51.522,26.885 C 52.156,26.885 52.727,26.557 53.034,25.991 L 52.504,25.692 C 52.267,26.082 52.01,26.326 51.529,26.326 C 50.93,26.326 50.554,25.805 50.547,25.246 L 53.034,25.246 L 53.034,25.246 z"
         id="path2420"
         style="fill:#ea2328;fill-rule:evenodd" />
      <path
         d="M 57.13,23.985 C 56.956,23.631 56.636,23.414 56.238,23.414 C 55.709,23.414 55.277,23.832 55.277,24.362 C 55.277,24.807 55.542,24.989 55.904,25.183 L 56.517,25.511 C 56.663,25.609 56.747,25.692 56.747,25.865 C 56.747,26.144 56.517,26.325 56.252,26.325 C 55.953,26.325 55.792,26.151 55.66,25.907 L 55.124,26.151 C 55.298,26.611 55.779,26.883 56.252,26.883 C 56.858,26.883 57.374,26.423 57.374,25.803 C 57.374,25.286 57.005,25.05 56.622,24.876 C 56.238,24.701 55.862,24.576 55.862,24.29 C 55.862,24.108 56.029,23.97 56.204,23.97 C 56.385,23.97 56.545,24.096 56.622,24.256 L 57.13,23.985"
         id="path2422"
         style="fill:#ea2328" />
      <path
         d="M 61.177,24.014 C 61.797,24.014 62.292,24.53 62.292,25.15 C 62.292,25.763 61.797,26.285 61.177,26.285 C 60.557,26.285 60.063,25.764 60.063,25.15 C 60.063,24.529 60.557,24.014 61.177,24.014 M 61.177,23.414 C 60.202,23.414 59.436,24.166 59.436,25.149 C 59.436,26.131 60.202,26.884 61.177,26.884 C 62.153,26.884 62.919,26.131 62.919,25.149 C 62.919,24.166 62.153,23.414 61.177,23.414 z"
         id="path2424"
         style="fill:#ea2328;fill-rule:evenodd" />
      <path
         d="M 65.9,23.512 L 65.273,23.512 L 65.273,26.773 L 65.9,26.773 L 65.9,25.17 C 65.9,24.641 65.984,24.014 66.659,24.014 C 66.806,24.014 66.931,24.049 67.043,24.147 L 67.328,23.575 C 67.175,23.478 66.994,23.415 66.813,23.415 C 66.395,23.415 66.074,23.659 65.921,24.042 L 65.9,24.042 L 65.9,23.512"
         id="path2426"
         style="fill:#ea2328" />
      <polyline
         id="polyline2428"
         points="70.274,24.098 70.887,24.098 70.887,23.512 70.274,23.512 70.274,22.265 69.647,22.265   69.647,23.512 69.306,23.512 69.306,24.098 69.647,24.098 69.647,26.772 70.274,26.772 70.274,24.098 "
         style="fill:#ea2328" />
      <path
         d="M 74.789,23.985 C 74.615,23.631 74.294,23.414 73.897,23.414 C 73.368,23.414 72.936,23.832 72.936,24.362 C 72.936,24.807 73.201,24.989 73.563,25.183 L 74.176,25.511 C 74.322,25.609 74.406,25.692 74.406,25.865 C 74.406,26.144 74.176,26.325 73.911,26.325 C 73.612,26.325 73.451,26.151 73.319,25.907 L 72.783,26.151 C 72.957,26.611 73.437,26.883 73.911,26.883 C 74.517,26.883 75.033,26.423 75.033,25.803 C 75.033,25.286 74.664,25.05 74.28,24.876 C 73.897,24.701 73.521,24.576 73.521,24.29 C 73.521,24.108 73.688,23.97 73.862,23.97 C 74.043,23.97 74.204,24.096 74.28,24.256 L 74.789,23.985"
         id="path2430"
         style="fill:#ea2328" />
    </g>
  </g>
</svg>
